<svg xmlns="http://www.w3.org/2000/svg" viewBox="0 0 62.44 84.56" preserveAspectRatio="xMidYMid meet"><g transform="translate(-763.52,-597.28)"><path fill="#DC0000" d="M787.801,670.745l0.036,0.007c6.48,1.057,12.948-2.332,18.213-9.544c3.613-4.948,6.332-11.311,7.656-17.906   l0.004-0.018c3.638-14.96,0.131-32.106-12.035-34.904l-0.036-0.007c-6.48-1.057-12.948,2.332-18.213,9.544   c-3.612,4.948-6.332,11.311-7.656,17.905l-0.004,0.018C772.129,650.8,775.635,667.946,787.801,670.745z" />
	<g>
		<path fill="#990711" d="M787.601,671.628l0.043,0.009c12.888,2.124,23.813-12.656,26.934-28.178    c3.74-15.4,0.012-33.057-12.704-35.961l-0.043-0.009c-7.387-1.217-14.128,3.118-19.125,9.963    c-3.722,5.099-6.477,11.589-7.809,18.216C771.158,651.067,774.886,668.724,787.601,671.628z M776.35,635.936    c2.97-14.798,13.198-28.925,25.177-26.97c11.81,2.716,15.176,19.513,11.607,34.193l-0.007,0.03    c-2.97,14.798-13.198,28.925-25.177,26.97c-11.81-2.717-15.177-19.513-11.607-34.193L776.35,635.936z" />
		<path fill="#990711" d="M793.875,658.868c5.602,0.677,10.34-8.556,11.955-17.591c1.861-8.994,0.867-19.18-4.641-20.351    l-0.064-0.01c-2.447-0.296-4.729,1.299-6.658,3.941c-2.488,3.409-4.388,8.559-5.295,13.639c-1.863,8.996-0.871,19.19,4.638,20.361    L793.875,658.868z M800.872,622.402c4.347,0.968,5.204,10.407,3.502,18.623l-0.004,0.021c-1.473,8.253-5.803,16.829-10.242,16.337    c-4.346-0.968-5.204-10.407-3.498-18.644C792.104,630.485,796.434,621.91,800.872,622.402z" />
	</g>
</g></svg>