<svg id="Layer_2" xmlns="http://www.w3.org/2000/svg" viewBox="0 0 357.17 515.04"><g id="Layer_1-2"><path fill="currentColor" d="m351.37,164.92h0s-.13-.6-.13-.6c-9.8-42.85-30.76-81.55-60.6-111.92C260,21.21,223.31,2.68,187.36.19c-1.71-.12-3.46-.19-5.19-.19-22.87,0-42.39,10.44-54.73,19.2-30.16,21.39-48.17,53.6-48.17,86.17,0,16.9,4.54,33.96,12.81,48.04,6.46,10.99,14.97,19.91,24.93,26.15-3.39,2.88-6.69,6.03-9.87,9.45l-.23.26c-.23.25-.49.53-.7.76-.13.14-.3.31-.46.5l-.07.07c-.23.25-.47.51-.69.76-.59.66-1.16,1.34-1.74,2.02-15.9-1.41-32.2-2.8-48.3-3.79-15.91-.99-31.99-1.92-47.77-2.77-1.44-.07-2.81.39-3.91,1.22-1.03.66-1.86,1.63-2.33,2.83-1.74,4.47-.72,10.86.06,14.28.4,1.82,1.99,3.12,3.84,3.15,11.9.22,59.1,1.06,86.4,1.43h0c-.07.1-.13.19-.18.29,0,0,0,0,0,0l-.1.15c-.08.15-.19.3-.27.43-.07.11-.13.21-.19.31-.04.06-.07.11-.1.17-.51.83-1.02,1.67-1.53,2.51,0,0,0,0,0,0-.87.1-1.75.18-2.62.28-2.21.25-4.42.5-6.63.77-12.84,1.56-24.11,3.29-34.44,5.3-6.45,1.26-13.66,2.72-21.43,4.36-.35.07-1.34.25-2.7.51-3.91.73-11.17,2.08-15.01,3.01-.67.17-1.27.48-1.77.91-.32.21-.61.47-.87.75-.57.65-.93,1.49-1.01,2.39-.47,5.32-.42,15.09,5.16,20.8,1.01,1.04,2.48,1.48,3.91,1.17,22.09-4.74,43.71-9.32,64.39-13.65h0c-.04.08-.07.18-.1.26-.1.24-.2.49-.3.75-.04.07-.07.16-.1.25-1.81,4.6-3.53,9.41-5.13,14.35-2.3,7.1-4.36,14.25-6.12,21.23-8.47,33.72-10.62,61.79-6.57,85.85,4.62,27.29,17.06,51.54,29.09,74.97,11.5,22.38,23.38,45.52,27.46,70.29l.38,2.3.75,4.6,4.66-.05,22.01-.23,7.4-.08-2.28-7.03-1.14-3.52c-.13-.4-13.28-40.7-26.51-65.21-2.59-4.78-5-9.11-7.33-13.31-9.77-17.5-17.49-31.32-22.1-50.49-4.76-19.73-2.38-44.05,2.75-58.54.9,17.46,6.45,34.27,16.19,48.21,14.87,21.25,40.94,36.19,71.54,40.99,7.13,1.12,14.37,1.68,21.54,1.68,14.5,0,28.6-2.26,41.91-6.71,14.64-4.91,28.23-12.21,40.41-21.69,35.07-27.38,60.23-70.56,69-118.49,5.78-31.57,5.12-64.62-1.9-95.67Zm-253.84,45.08c.04-.07.09-.13.13-.2,4.76.06,8.51.09,10.81.09.76,0,1.38,0,1.81,0l1.54-.03c5.57-.09,14.77-.25,23.84-.74-1.49.13-2.98.25-4.45.37-2.72.22-5.43.45-8.14.71-3.12.31-6.23.61-9.34.9-5.51.52-11.13,1.06-16.76,1.64.47-.72.93-1.44,1.41-2.16l-.85-.58Zm249.94,49.53c-8.52,46.52-32.88,88.4-66.82,114.91-11.65,9.08-24.66,16.05-38.67,20.74-12.73,4.25-26.2,6.41-40.04,6.41-6.86,0-13.79-.54-20.63-1.61-29.01-4.56-53.66-18.61-67.61-38.55-13.27-18.98-18.2-43.66-13.54-67.72l.37-1.93-1.2,1.56c-4.05,5.26-7.38,10.53-9.89,15.68-7.09,14.46-11,43.67-5.26,67.51,4.81,19.94,12.7,34.08,22.69,51.98l.84,1.51c2.07,3.72,4.22,7.57,6.45,11.71,12.81,23.75,25.55,62.57,26.09,64.23l.95,2.92-20.99.22-.32-1.9c-4.23-25.67-16.32-49.22-28.03-72.03-11.83-23.03-24.06-46.84-28.52-73.26-3.92-23.22-1.8-50.51,6.47-83.42,1.72-6.82,3.74-13.84,6.01-20.85,1.93-5.97,4.07-11.8,6.34-17.32l.12-.27c.1-.25.2-.5.31-.74,0-.01.01-.03.02-.05l3.74-.78c3.5-.74,7-1.47,10.51-2.18,14.51-3,26.51-5.39,37.78-7.51,3.01-.57,6.04-1.12,9.03-1.64,1.92-.28,3.84-.62,5.62-.94,6.59-1.18,13.4-2.4,20.01-.39,7.28,2.22,15.22,9.66,18.47,17.31,3.28,7.69,2.53,15.92,1.32,21.47-.05.23-.11.52-.19.84l-2.03,5.49c-.11.4-.56,1.81-2,3.16-1.21,1.04-2.73,1.76-4.53,2.14-3.55.77-7.56.65-11.93-.36-2.31-.54-4.57-1.42-6.76-2.27-1.54-.6-3.14-1.22-4.75-1.72-5.05-1.56-9.27-2.19-12.92-1.93-3.7.26-7.48,1.66-10.95,4.04-.13.09-.27.18-.34.25-1.54.93-2.61,1.83-3.2,2.75-.08.13-.19.31-.3.53-.72.82-1.4,1.67-1.96,2.39-.71.76-1.38,1.52-2.04,2.33-4.65,5.7-8.08,12.14-10.21,19.14-2.93,9.64-2.77,17.62.47,23.71.28.54.61,1.08,1.01,1.63.46,4.51,2.2,7.87,5.17,10.02,1.6,1.16,3.41,1.94,5.52,2.4-.21,1.15-.34,2.11-.34,2.16-.75,6.23-.17,11.39,1.75,15.77.52,1.2,1.16,2.37,1.91,3.47,2.74,4.03,6.55,7.25,9.9,9.95,4.03,3.25,8.18,6.12,12.34,8.54,3.43,2,6.34,3.39,9.17,4.37l.43.15.46-.29c.23.09.46.17.69.25l.36.13c1.33.47,2.7.95,4.08,1.34.2.06.4.11.6.16.19.05.38.1.57.16,5.47,1.59,11.05,2.58,16.58,2.92,1.04.06,2.77.15,4.53.08,3.23.8,5.85,1.18,8.24,1.18,2.71,0,5.1-.48,7.28-1.46,1.07-.48,2.12-1.13,3.12-1.91,2.83-2.09,5.14-5.27,6.52-8.97,3.87-.28,7.74-.79,11.49-1.52,2.12.15,4,.22,5.77.22,13.33,0,24.01-3.18,32.64-9.7.65-.48,1.35-1,2-1.55,9.56-7.94,21.79-20.31,25.73-34.08,3.53-7.3,3.96-14.19,1.27-20.48-.83-1.93-1.93-3.8-3.33-5.68,5.26-.9,9.98-2.85,14.05-5.81,2.55-1.79,4.81-3.93,6.72-6.38.8-1.04,1.56-2.13,2.25-3.24,3.9-3.59,6.72-7.71,8.38-12.24,5.78-15.69-5.11-29.04-14.13-37.86,5.36-2.16,9.85-5.63,13.01-10.05,3.95-5.52,6.47-12.56,7.27-20.38,1.81-4.97,2.74-9.4,2.61-12.5-.44-10.84-10.47-28.95-12.74-32.92,2.03-7.84,2.93-14.01-1.27-32.12-3.78-16.33-16.15-30.05-33.93-37.64-3.2-1.36-6.57-1.94-10.26-1.77.9-12.8-6.73-25.02-12.58-33.15-10.45-14.47-22.94-26.06-36.13-33.51l-.61-.34c-7.72-4.37-20.64-11.69-29.08-5.1l-.29.2c-.07.05-.14.1-.21.15-2.14,1.67-3.64,4.15-4.57,7.59l-.12.11s-.08.07-.12.1c-13.85-12.73-35.61-4.03-50.11,7.37-16.16,12.7-29.03,35.38-21.57,57.6-.73.23-1.46.53-2.17.91-.53.28-1,.6-1.53.98-5.82,3.91-7.75,11.65-7.64,17.09.03,1.58.2,3.26.55,5.28,1.87,11,7.99,26.06,17.43,34.9,2.91,3.17,6.18,5.8,9.74,7.83,2.74,1.55,5.65,2.34,8.67,2.34,5.66,0,10.41-2.71,13.39-4.97,1.82-1.32,3.49-2.85,4.97-4.54,3.84-4.4,6.36-9,7.49-13.66.45-1.83.6-3.64.75-5.67.21-2.69.41-5.22,1.6-7.5.07-.14.15-.28.24-.42,2.86,2.58,6.11,3.41,12.71,3.32l.49,2.33c1.7,7.96,3.46,16.19,2.55,24.28-.05.43-.1.85-.17,1.28-1.32,8.19-6.25,15.34-10.9,21.25-.7.89-1.4,1.79-2.09,2.71-2.81,3.68-5.99,7.85-9.96,10.86-7.68,5.57-17.76,5.54-25.68,4.9-9.01-.73-18.16-1.54-27.02-2.34.1-.1.2-.21.3-.33l.22-.24c5-5.37,10.28-10.05,15.71-13.91l.66-.47-.73-.34c-12.13-5.58-22.48-15.22-29.93-27.89-7.74-13.2-12-29.2-12-45.06,0-30.65,17.08-61.06,45.68-81.36,11.65-8.26,30-18.1,51.31-18.1,1.72,0,3.29.05,4.79.17,34.52,2.38,69.84,20.3,99.47,50.46,29.08,29.59,49.5,67.31,59.06,109.1,3.83,16.74,5.78,34.15,5.78,51.74,0,14.17-1.27,28.35-3.79,42.16Zm-187.33-123.8c-.25.62-.49,1.25-.75,1.87-2.55,6.25-5.57,12.63-10.2,16.05-3.3,2.27-7.42,3.05-12.73,1.27-3.42-1.14-6.52-3.12-9.29-5.62-8.05-8.64-12.64-21.2-11.94-34.02.4-7.42,3.24-14.43,7.6-19.54,3.15.74,6.23,2.88,9.24,4.96,1.03.72,2,1.39,2.98,2.01l.87.55c8.51,5.41,18.14,11.5,28.58,12.73.92,1.26,1.72,2.38,2.41,3.37.52.73,1,1.38,1.46,1.99-4.1,4.09-6.2,9.32-8.24,14.39Zm5.58-5.25c-.09.85-.17,1.69-.23,2.54-.13,1.78-.26,3.46-.66,5.11-1.01,4.17-3.29,8.3-6.78,12.28-1.15,1.32-2.47,2.58-3.9,3.69-1.38,1.03-2.87,1.94-4.42,2.62.57-.35,1.11-.74,1.63-1.15,5.74-4.3,8.93-12.08,11.04-17.23.25-.62.51-1.26.76-1.88.83-2.07,1.65-4.08,2.57-5.98Zm-53.46-6.78c-.86-2.79-1.49-5.46-1.9-7.85-.32-1.88-.48-3.41-.51-4.8-.08-4.81,1.72-10.97,5.83-14.04.26-.17.52-.34.8-.48.91-.49,1.81-.78,2.72-.93-4.13,5.42-6.77,12.46-7.18,19.84-.15,2.77-.07,5.55.24,8.27Zm13.61-34.48s-.02.02-.03.02c-1.37.92-2.65,2-3.86,3.19-.33-.04-.68-.06-1.02-.06-7.67-21.01,4.51-42.71,20.15-54.99,13.99-10.99,33.93-18.93,46.25-7.2-.28.37-.56.74-.81,1.14-3.74-1.84-15.6-6.4-30.82.34-4.76,2.1-8.92,4.6-12.54,7.27-10.84,7.84-16.9,17.27-19.01,22.64l-.17.4c-2.75,6.98-6.15,15.61,1.87,27.24Zm1.93,2.08c.16-.1.32-.2.47-.31,2.25.02,15.96.76,29.57,16.61,1.46,1.7,2.72,3.25,3.83,4.66-8.51-1.96-16.59-7.07-23.83-11.68l-.87-.56c-.93-.59-1.88-1.24-2.88-1.94-2.61-1.81-5.56-3.84-8.72-4.94.76-.68,1.59-1.28,2.43-1.85Zm38.12,21.02c-1.49-1.96-3.29-4.23-5.54-6.84-13.92-16.22-27.95-17.52-31.4-17.59-7.68-10.69-4.77-18.06-1.96-25.19l.17-.41c1.96-5,7.58-13.73,17.65-21.12,3.37-2.44,7.22-4.72,11.6-6.65,14.44-6.4,25.81-1.7,28.72-.25-.47,6.45-3.41,45.53-4.63,60.8-.39,4.94-.17,9.7.37,14.06-4.51.94-10.39,2.18-14.98,3.19Zm10.29,3.27c-1.12.64-2.21,1.34-3.29,2.09-.22.15-.46.32-.68.47-.05.04-.08.07-.13.1-.42.3-.84.6-1.25.91-.38-.52-.79-1.1-1.25-1.74-.26-.38-.55-.78-.86-1.2,2.51,0,5-.23,7.44-.64Zm-.85,4.03c.13-.09.26-.19.39-.27.07-.06.15-.1.21-.16,1.1-.74,2.26-1.43,3.44-2.09.86-.45,1.73-.88,2.61-1.31.63,3.02,1.37,5.75,2.08,8.11v.07c-6.74.21-8.93.07-11.18-2.23.74-.75,1.57-1.45,2.44-2.1Zm8.37-24.63c1.27-15.81,4.36-57.19,4.67-61.37.18-.31.37-.59.57-.87-.24,2.4-.31,4.84-.37,7.1-.05,1.73-.09,3.37-.22,4.73l-2.66,29.77c-.52,5.77-.91,11.28-.72,16.56,0,.23-.02.45-.02.62,0,5.14,2.08,14.76,2.41,16.27-.59.12-1.69.35-3.15.65-.65-3.69-.94-7.98-.5-13.46Zm6.56,20.51s7.11,11.54,10.79,15.82l-8.13,14.97c-.47-4.71-1.85-16.9-3.93-22.7l-1.54-3.57c-.51-1.57-1.04-3.13-1.54-4.76,1.71-.11,3.36-.1,4.36.23Zm120.29,115.2c-.48.45-1.02.9-1.59,1.36-1.94,1.41-4.09,2.43-6.58,2.67l-1.28.06c-3.37.06-6.7-.83-9.98-1.52-4.06-.85-8.09-1.81-12.11-2.82-4.37-1.1-8.75-2.26-13.09-3.46-4.27-1.19-8.53-2.41-12.78-3.68-1.14-.33-2.27-.68-3.41-1.02l-56.55-18.16c5.84-3.8,11.22-7.33,16.37-10.78,7.31-4.89,13.08-8.48,21.02-10.24,1.28-.29,2.7-.58,4.44-.9,0,0,17.73-3.55,31.76-5.74,3.21-.36,6.41-.82,9.59-1.32,1.87-.2,3.47-.34,4.68-.36l.02-.43c3.46-.61,6.9-1.25,10.29-1.89,2.42-.47,4.79-.97,6.96-1.74.95-.12,1.91-.11,2.87-.11,1.78.02,3.55.16,5.3.49,3.43.67,6.66,2.14,9.28,4.49,2.07,1.87,3.69,4.19,4.94,6.66,3.73,7.36,5.25,16,4.67,24.23-2.89,8.36-8.53,18.38-14.83,24.2Zm11.28-9.63c-.92,2.06-2,4-3.28,5.77-1.7,2.38-3.82,4.43-6.25,6.1.19-.17.37-.32.56-.48,3.27-3.02,6.34-7.04,8.97-11.38Zm-6.95,36.81c3.29,9.56,1.24,20.78-3.92,29.27-.59.51-1.18,1.01-1.79,1.49-6.49,4.95-14.64,7.83-21.71,8.55-17.31,1.78-31.95-7.83-46.1-17.1l-2.65-1.73c-11.21-7.31-26.85-23.98-30.54-41.04-.09-.5-.2-1.01-.3-1.52-.03-.19-.07-.36-.1-.55v.06c-.43-1.93-.93-3.84-1.53-5.75,7.43.59,15.31,1.08,19.25.95l.08.05s8.56.73,14.58,1.45c6.01.74,30.79,5.29,52.11,10.76,14.54,3.72,19.76,9.4,21.6,12.63.37.81.71,1.63,1,2.47v.03h0Zm-49.43,97.35c-.28.2-.57.41-.86.6-.42.31-.85.6-1.27.89-10.94,7.5-23.44,12.73-36.34,15.28-3.38-.23-6.92-.69-10.63-1.3.47-4.19.16-8.45-.25-12.53-.87-8.7-2.08-17.5-3.27-26-1.73-12.41-3.51-25.23-4.21-37.93-.41-7.5,0-15.28.4-22.8.04-.85.09-1.68.14-2.53.47.42.94.83,1.44,1.24l.46.38.05-.1c7.6,5.95,19.33,13.78,25.62,17.7,8.96,5.58,19.84,11.61,35.13,16.91,15.29,5.29,16.17,7.64,16.17,7.64,0,0,.41.19.9.36,2.17,5.55,2.09,11.16.59,16.57-5.07,10.32-16.05,19.72-24.08,25.61Zm15.73-9.7c-5.1,6.77-11.36,12.61-16.43,16.81-.67.56-1.37,1.08-2.07,1.59-6.53,4.63-14.46,7.28-23.88,8.05,10.02-3.29,19.59-8.13,28.13-14.39.09-.06.19-.13.27-.2.05-.04.1-.07.15-.1,4.22-3.08,9.21-7.12,13.82-11.76Zm-68.65,28.73c-1.04,3.96-3.14,7.28-5.85,9.35-.6.42-1.23.78-1.88,1.08-1.6.74-3.3,1.06-5.06,1.14,1.08-.47,2.14-1.06,3.14-1.79.06-.04.1-.08.16-.13.08-.06.17-.11.25-.17,3.37-2.45,5.85-6.3,7.14-10.93.78.16,1.56.32,2.34.47-.04.19-.07.38-.11.57,0,.06-.03.1-.05.16h-.08l.02.25Zm-91.62-48.24l-.22-.1c-.21-.22-.41-.46-.6-.7-.24-3.8.46-7.95,1.01-11.23l.09-.52c2.71-15.94,7.47-26.89,13.65-31.52.12-.09.24-.18.36-.25.93-.61,1.9-1.08,2.89-1.41,5.15-1.68,11.33,1.25,16.29,3.59l.4.2c7.73,3.66,14.68,6.11,20.85,7.39-.35.33-.69.65-1.01.94-3.05,2.7-7.7,6.51-11.69,9.68-.07.07-.14.12-.21.18-.61.47-1.22.95-1.79,1.4-1.14.89-2.17,1.68-3.02,2.3-.28.2-.54.4-.78.58-.02,0-.03.02-.05.04-.1.07-.2.14-.3.2-.2.14-.43.31-.67.47-.27.2-.55.41-.87.64-.27.2-.57.41-.87.64-.02.03-.04.05-.07.06-4.23,3.16-11.41,8.84-12.95,10.27-.43.41-.94.99-1.54,1.65-1.23,1.38-2.85,3.17-4.79,4.63-.08.07-.17.13-.26.2-1.02.69-2.13,1.27-3.32,1.66-4.83,1.54-10.49-.95-10.54-.97Zm8.45,7.53c-.34.53-.64,1.28-.9,2.11-1.63-.33-3.15-.91-4.49-1.89-1.05-.75-1.83-1.72-2.42-2.82,2.01,1.3,4.3,2.16,6.66,2.35.38.11.77.19,1.15.25Zm63.23-118.36c-5.54-1.21-10.11-2.26-12.14-2.85,1.82-1.16,3.59-2.3,5.33-3.42,2.12,1.82,4.5,3.97,6.8,6.26Zm-2.61-6.98c8.22,2.51,17.25,5.03,25.67,7.36,9.15,2.54,17.79,4.94,24.36,7.04,8.62,2.76,20.86,6.4,32.6,9.48-1.24-.16-2.48-.32-3.72-.47-17.12-3.85-42.33-9.41-42.33-9.41l-.1.11c-4.15-.86-16.91-3.48-28.11-5.89-2.65-2.96-5.62-5.79-8.36-8.24Zm12.71,21.06c2.59,7.56,3.51,15.41,3.68,23.32-2.6-3.22-4.98-6.4-7.18-9.72-2.58-3.87-4.83-8.04-7.01-12.07-.47-.87-.95-1.74-1.42-2.6,2.27.21,6.79.64,11.94,1.07Zm3.42,36.93c-.05.8-.08,1.6-.12,2.4-.86,3.48-1.83,6.84-2.92,10.05-.73,2.14-1.74,4.22-3.03,6.23-.1.09-.2.18-.3.26-.26.16-.77.46-.77.61-.19-1.6-.37-3.2-.55-4.8-.22-1.94-.45-3.83-.38-5.78.05-1.61.18-3.21.32-4.82.29-3.22.65-6.44,1.04-9.65.07-.57.14-1.13.2-1.69.04-.3.07-.59.11-.88,0,0,0-.04,0-.06.87,1.34,2.33,3.38,4.33,5.68.08.19.2.38.35.6.37.52.96,1.15,1.71,1.87Zm-14.51,12.1c.09-.21.19-.42.28-.62.08,2.32.53,6.29,1.13,10.84-2.37.67-5,1.01-7.89.95,1.97-2.2,3.6-4.39,4.38-6.33.72-1.76,1.42-3.33,2.1-4.84Zm1.8,13.09l.14.98c-1.13,1.02-2.33,2.04-3.63,3.03-.14.1-.29.21-.43.32-.24.19-.49.36-.74.54-1.85,1.33-3.87,2.63-6.06,3.92-3.69,2.16-7.65,4.13-11.84,6.24-6.18,3.09-12.43,6.24-18.03,10.04-.36.24-.73.49-1.08.74-.17.12-.34.24-.51.36-.66.47-1.31.94-1.95,1.43,6.36-5.3,13.46-11.06,18.84-14.98.78-.57,1.54-1.1,2.22-1.57.05-.04.18-.13.36-.27.02,0,.04-.03.06-.04.4-.29,6.33-4.67,11.5-9.7,4.14.31,7.85-.05,11.14-1.03Zm-15.17-2.62c-6.34-1.14-13.62-3.63-21.83-7.51l-.4-.19c-5.13-2.43-12.15-5.76-18.35-3.73-1.6.52-3.09,1.32-4.46,2.35-.05.03-.1.07-.15.1-8.65,6.18-12.94,21.18-15.03,33.53l-.08.52c-.26,1.54-.56,3.24-.77,5.03-1.07-4.64-.61-10.29,1.38-16.85,2-6.6,5.24-12.67,9.61-18.03,1.39-1.68,2.84-3.34,4.59-4.65.47-.34.94-.67,1.43-.99,2.76-1.07,8.56-3.12,12.22-3.03.76.12,1.54.28,2.29.45,2.66.88,7.21,2.73,11.28,4.36,3.52,1.41,6.55,2.64,7.91,3.07,3.2,1.03,12.01,1.12,14.15.37.35-.13.75-.36,1.19-.68-1.54,1.93-3.28,4.01-4.97,5.88Zm-32.67,33.32c-4.11,3.78-7.51,8.22-9.75,13.69-.95.1-1.88.19-2.8.21.33-1.34.7-2.7,1.08-4.09,1.21-1.05,5.76-5,11.47-9.82Zm-13.25,17c.79-.02,1.58-.07,2.36-.14-3.1,10.27.81,19.94,11.35,27.97,8.64,6.59,18.59,12.02,29.71,16.25-13.06-2.79-25.48-9.16-35.18-18.21-4.13-3.87-6.57-7.17-7.88-10.67-1.77-4.72-1.48-9.76-.36-15.2Zm15.82,25.3c-3.42-2.61-6.57-5.7-8.7-9.46-1.81-3.18-2.75-6.78-2.57-10.44.1-2.04.52-4.04,1.16-5.97.34-1.03.74-2.05,1.2-3.03.73-1.56,1.58-3.07,2.52-4.49,1.33-2.01,2.86-3.97,4.6-5.64,2.08-2.12,4.38-4,6.8-5.72,5.67-3.98,12.14-7.23,18.53-10.42,4.23-2.12,8.23-4.12,12-6.33,3.02-1.76,5.73-3.57,8.15-5.43.37-.28.73-.57,1.09-.85.13-.11.26-.21.4-.33.23-.19.47-.38.71-.57,1.32,9.06,2.83,18.21,3.22,20.29.28,1.47,1.62,5.15,3.22,9.23,1.2,4.24,2.47,8.48,3.65,12.73,1.51,6.38,2.84,12.85,3.64,19.34.51,4.11.9,8.94-.04,13.55-.95,4.63-3.18,8.46-6.29,10.8-2.66,1.84-6.06,2.84-10.51,3.03-.53-.14-1.06-.28-1.58-.43-15.88-4.43-29.73-11.11-41.2-19.86Zm62.96,5.32c1.31-8.53-.62-17.65-2.44-25.98-1.57-7.19-3.57-14.58-5.07-21.91-1.54-7.47-2.07-14.98-3.01-22.53-.33-2.65-.71-5.78-1.07-8.87,1.41-1.6,2.62-3.25,3.66-4.92.04-.04.07-.07.11-.11l-.03-.03c.83-1.36,1.54-2.75,2.14-4.17-.16,4.51-.2,9.05.04,13.51.71,12.82,2.49,25.7,4.23,38.16,1.17,8.48,2.39,17.24,3.26,25.9.38,3.87.69,7.68.33,11.38-.71-.14-1.43-.29-2.15-.44Zm-.93-112.55c.07-1.47.14-2.88.22-4.14,4.89,10.26,13.81,19.77,26.39,27.97l2.63,1.72c2.92,1.92,5.85,3.84,8.83,5.68-6.09-3.3-11.81-6.83-17.1-10.58-7.8-6.83-16.04-15-16.04-15l-.2-.23c-1.66-1.86-3.22-3.66-4.73-5.42Zm72.95,44.07c-1.89-.07-3.82-.29-5.77-.66-.85-.28-1.68-.54-2.53-.8,2.62.47,5.28.73,8.01.73.07,0,.12,0,.18,0l-.32.34c.15.14.29.28.43.41Zm4.58-.07c-.27-.29-.54-.57-.82-.86.15,0,.31-.02.47-.04,5.19-.53,10.95-2.16,16.3-4.87-4.49,3.3-9.95,5.28-15.95,5.76Zm15.57-61.29c.17-.04.33-.08.49-.13.39.36.77.74,1.15,1.11-.54-.34-1.09-.67-1.65-.98Zm-42.06-139.02h.14c-.74.43-1.46.87-2.2,1.35-1.97,1.07-3.97,2.36-6.03,3.85-.66.48-1.33.98-2.01,1.5-5.61,4.34-10.8,9.38-15.49,15.01-4.54,5.03-14.7,16.29-16.43,21.9-1.21-1.37-6.58-7.56-12.09-14.92.2-.22.37-.42.54-.58.94-.9,2.7-2.28,4.94-3.93,8.43-6.15,23.3-15.67,29.84-18.02,2.21-.8,4.85-2.22,7.89-3.88,3.36-1.82,7.18-3.9,11.23-5.51-.05.57-.09,1.14-.16,1.7h-.15l-.02.34c0,.4-.03.79,0,1.17Zm-43.66,75.21c2.75-.39,5.53-.76,8.21-1.1,1.41-.05,2.83-.12,4.29-.2-.82.18-1.55.42-2.21.71-3.42.53-7.23,1.24-9.72,2.06-.5.07-.9.14-.91.2.11-.55.22-1.11.34-1.67Zm-5.82-30.25c.92,2.02,1.91,3.02,2.39,5.24.1,2.75-.2,5.28-.56,7.22-.35.79-.61,2.1-.91,3.75-.13.71-.25,1.38-.35,1.7-.31,1.01-.6,2.02-.91,3.06-.45,1.54-.9,3.07-1.39,4.61-1.31.02-2.58.03-3.74,0-9.61-.13-15.53.59-17.62.89,1.97-4.69,12.36-29.28,16.42-36.22,2.81,3.52,5.6,7.4,6.67,9.73Zm54.51,26.62c-8.28.87-16.71,1.27-25.03,2.16-2.05.06-3.87.04-5.37-.07v-.1s-.54.07-.54.07c-.18-.02-.34-.02-.52-.03,3.84-.29,7.93-.68,12.39-1.23,7.98-.98,14.4-2.52,20.05-3.89,5.9-1.42,10.99-2.65,16.52-2.98,3.69-.21,8.42.52,13,1.24.2.03.39.07.59.09-1.18.23-2.9.62-3.69.74-4.05.56-8.02,1.53-12.05,2.17-.11.02-.22.03-.33.05v-.2s-6.62.98-15.02,1.98Zm42.77-3.62c2.82-.1,5.18-.7,6.72-2.18.08-.07.19-.14.27-.21,1.56,2.83,4.34,8.06,6.76,13.71-3.55-6.49-8.34-9.84-13.74-11.32Zm5.61-5.66c-.08.3-.2.57-.35.81-.65.73-1.48,1.26-2.53,1.5-.9.2-1.84.27-2.76.29-.41,0-2.98-.33-3.14-.12,4.17-5.36,4.34-12.39,3.97-18.86-.44-7.63-1.32-15.33-4.02-22.53-.14-.35-.28-.72-.42-1.07-4.49-11.12-14.48-24.32-27.17-26.3-.71-.11-1.41-.18-2.13-.21-.73-.05-1.44-.04-2.17,0-.26.02-2.35.07-2.41.28.18-.64.33-1.27.46-1.92,3.22-.24,6.43.13,9.54,1.45,16.81,7.17,28.49,20.06,32.03,35.38,4.17,18,3.19,23.37,1.11,31.3Zm-35.46-61.07c8.8,2.76,14.79,11.06,17.77,16.22,6.22,10.77,9.34,23.02,9.05,35.45-.08,3.43-.49,7.76-2.97,10.72-.22.28-.48.51-.74.76-1.54-.2-3.12-.45-4.69-.7-4.73-.74-9.61-1.5-13.59-1.27-5.78.34-10.98,1.6-17.01,3.05-1.58.38-3.16.76-4.75,1.13-3.55.81-7.14,1.08-10.76,1.34-3.69.28-7.4.53-11.1.79-.39.03-.77.06-1.16.07v-.2l-.45.05c-.06,0-1.93.22-4.84.51-1.8.12-3.6.25-5.4.36-3.28.22-6.54.43-9.82.63-.05,0-.08,0-.12,0,.87-3.96,2.04-9.01,3.42-14.06l.19-.67-.09.02c.37-2.18,2.1-9.7,9.44-20.16,7.45-10.64,12.21-15.89,16.24-18.89.55-.4,1.09-.75,1.62-1.08.89-.54,1.86-1.22,2.87-1.97,1.88-1.38,3.94-3.04,6.09-4.62,2.49-1.8,5.09-3.42,7.67-4.31.58-.2,1.14-.4,1.69-.6l.09.05s.04-.07.07-.11c3.93-1.48,7.52-3.08,11.3-2.52Zm-14.98-2.74c.1-.92.18-1.84.23-2.75,1.39-.46,2.78-.83,4.19-1.11-.18.77-.39,1.55-.65,2.34-.46.15-.91.3-1.38.47-.78.31-1.58.66-2.39,1.05Zm4.95-7.04c-1.54.28-3.09.65-4.6,1.13.16-27.49-19.98-51.76-41.6-64.44-6.91-4.05-17.37-7.55-26-5.23-.98.26-1.9.6-2.78,1.01.59-1.13,1.3-2.08,2.22-2.82,6.85-4.8,18.3,1.67,25.19,5.56l.61.35c12.78,7.21,24.91,18.48,35.09,32.59,6.08,8.43,13.06,20.02,11.86,31.85ZM197.66,26.48c7.81-2.09,17.45,1.17,23.87,4.94,21.16,12.41,40.87,36.22,40.21,62.99-4.48,1.71-8.67,3.98-12.33,5.97-2.94,1.59-5.49,2.98-7.5,3.7-6.97,2.5-22.33,12.35-30.92,18.66-2.52,1.84-4.51,3.41-5.61,4.43-.17-.22-.34-.45-.5-.68-6.94-9.67-11.71-19.62-13.34-25.74-1.64-6.13-1.91-12.4-1.91-16.48,0-2.84.26-15.28.42-22.66l1.54-17.1c.13-1.45.18-3.13.23-4.9.09-3.48.2-7.43.97-10.84,1.45-1.02,3.07-1.81,4.89-2.29Zm-6.19,153.81c1.27-.21,7.98-1.41,16.27-2.74-1.53,3.49-3.47,6.69-6.25,9.24-.51.47-1.05.92-1.6,1.36-3.92,2.95-8.54,4.94-13.05,6.85-1.35.58-2.69,1.14-4.01,1.74-1.57.72-3.22,1.44-4.9,2.16l-4.62-2.52c1.14-1.46,4.99-6.28,7.96-9.4,1.32-1.38,2.72-2.62,4.09-3.67,2.24-1.64,4.41-2.74,6.11-3.02Z"/></g></svg>